PathFileType	3	(X/Y/Z)	random_1__view2_aligned.trc
DataRate	CameraRate	NumFrames	NumMarkers	Units	OrigDataRate	OrigDataStartFrame	OrigNumFrames
100.0	100.0	17	19	mm	100.0	1555	1930
Frame#	Time	pelvis			neck			head			hip_left			hip_right			knee_left			knee_right			ankle_left			ankle_right			heel_left			heel_right			toe_left			toe_right			shoulder_left			shoulder_right			elbow_left			elbow_right			wrist_left			wrist_right			
		X1	Y1	Z1	X2	Y2	Z2	X3	Y3	Z3	X4	Y4	Z4	X5	Y5	Z5	X6	Y6	Z6	X7	Y7	Z7	X8	Y8	Z8	X9	Y9	Z9	X10	Y10	Z10	X11	Y11	Z11	X12	Y12	Z12	X13	Y13	Z13	X14	Y14	Z14	X15	Y15	Z15	X16	Y16	Z16	X17	Y17	Z17	X18	Y18	Z18	X19	Y19	Z19	
1555	15.54000	12.953139	926.867218	280.390019	4.960435	1506.531339	307.456133	92.661098	1635.923602	259.701973	-10.530885	924.511392	211.129235	36.437020	929.223038	349.650784	121.316828	526.738337	87.914096	168.837816	513.157738	337.415585	61.216731	124.238989	44.756226	88.217099	111.680133	348.480202	27.674448	77.620638	53.004075	52.158235	63.987521	351.170673	228.721816	60.481539	-25.238575	268.531507	58.966277	321.619528	-92.321117	1504.099640	173.350180	14.402165	1447.882806	467.471478	-121.113564	1473.275023	-82.686982	94.949628	1370.124184	703.446138	-5.859050	1460.267825	-298.843024	210.831842	1375.002609	882.348672
1556	15.55000	9.344911	926.730284	279.932738	3.566734	1505.717570	306.358230	92.080328	1634.224387	257.911688	-14.158047	924.389195	210.718952	32.847774	929.071369	349.146516	118.453332	526.833461	87.663353	166.131685	513.296418	336.835622	58.701709	124.411353	44.277836	86.006532	111.834006	347.688162	25.194629	77.733687	52.381099	49.993482	64.119509	350.371490	226.492370	60.968426	-25.357646	266.446308	59.167248	321.029873	-94.552734	1502.946175	172.032617	13.275754	1446.371969	466.830898	-129.420449	1464.546272	-84.019897	89.615031	1359.533124	702.297138	-18.196512	1443.951922	-302.834180	203.868335	1353.312090	886.196512
1557	15.56000	5.736684	926.593350	279.475457	2.173032	1504.903801	305.260327	91.499557	1632.525173	256.121404	-17.785209	924.266998	210.308669	29.258528	928.919701	348.642249	115.589835	526.928584	87.412610	163.425555	513.435097	336.255658	56.186686	124.583718	43.799446	83.795965	111.987878	346.896123	22.714809	77.846736	51.758123	47.828729	64.251497	349.572308	224.262923	61.455312	-25.476717	264.361109	59.368220	320.440218	-96.784351	1501.792710	170.715054	12.149344	1444.861132	466.190318	-137.727334	1455.817521	-85.352812	84.280434	1348.942065	701.148138	-30.533973	1427.636019	-306.825336	196.904828	1331.621571	890.044353
1558	15.57000	2.128457	926.456416	279.018176	0.779331	1504.090031	304.162425	90.918787	1630.825958	254.331120	-21.412372	924.144801	209.898387	25.669283	928.768032	348.137981	112.726338	527.023707	87.161866	160.719424	513.573777	335.675695	53.671664	124.756083	43.321056	81.585398	112.141750	346.104084	20.234989	77.959785	51.135147	45.663975	64.383484	348.773125	222.033477	61.942199	-25.595788	262.275910	59.569191	319.850563	-99.015967	1500.639245	169.397491	11.022933	1443.350295	465.549737	-146.034220	1447.088771	-86.685727	78.945837	1338.351005	699.999138	-42.871434	1411.320116	-310.816492	189.941321	1309.931052	893.892193
1559	15.58000	0.192904	926.344019	279.071816	0.813666	1503.381250	303.612997	92.285121	1629.039664	253.703386	-23.265267	924.045723	209.910972	23.651074	928.642316	348.232671	111.671173	527.046386	87.383535	159.805699	513.735516	335.932478	53.027493	124.694362	43.106956	81.183812	112.124855	346.024124	19.623883	77.823952	50.719568	45.299334	64.348586	348.609018	221.846389	62.277742	-25.159108	262.047489	59.479910	320.220266	-99.228522	1499.588478	168.207915	11.275688	1442.228900	465.413355	-149.363314	1438.124947	-84.786833	76.605461	1329.658584	695.812567	-48.279897	1394.676298	-307.958946	187.541389	1291.956373	889.105129
1560	15.59000	-1.742648	926.231622	279.125456	0.848001	1502.672469	303.063569	93.651455	1627.253370	253.075653	-25.118163	923.946644	209.923557	21.632866	928.516601	348.327361	110.616008	527.069066	87.605204	158.891975	513.897255	336.189261	52.383323	124.632642	42.892856	80.782226	112.107959	345.944165	19.012777	77.688119	50.303988	44.934693	64.313688	348.444911	221.659300	62.613286	-24.722428	261.819068	59.390629	320.589970	-99.441076	1498.537711	167.018338	11.528443	1441.107504	465.276973	-152.692409	1429.161122	-82.887939	74.265084	1320.966163	691.625995	-53.688360	1378.032480	-305.101399	185.141456	1273.981693	884.318065
1561	15.60000	-3.678200	926.119226	279.179096	0.882336	1501.963687	302.514140	95.017790	1625.467076	252.447920	-26.971058	923.847566	209.936143	19.614657	928.390885	348.422051	109.560843	527.091745	87.826873	157.978250	514.058995	336.446044	51.739153	124.570921	42.678756	80.380640	112.091064	345.864206	18.401670	77.552286	49.888409	44.570051	64.278789	348.280803	221.472212	62.948829	-24.285748	261.590647	59.301348	320.959673	-99.653630	1497.486944	165.828762	11.781197	1439.986109	465.140590	-156.021504	1420.197298	-80.989046	71.924707	1312.273742	687.439424	-59.096823	1361.388662	-302.243852	182.741524	1256.007013	879.531000
1562	15.61000	-5.613753	926.006829	279.232736	0.916672	1501.254906	301.964712	96.384124	1623.680782	251.820186	-28.823954	923.748487	209.948728	17.596449	928.265170	348.516741	108.505678	527.114424	88.048541	157.064525	514.220734	336.702827	51.094983	124.509201	42.464656	79.979054	112.074168	345.784247	17.790564	77.416453	49.472830	44.205410	64.243891	348.116696	221.285124	63.284373	-23.849068	261.362227	59.212067	321.329377	-99.866184	1496.436177	164.639185	12.033952	1438.864714	465.004208	-159.350598	1411.233474	-79.090152	69.584330	1303.581321	683.252853	-64.505286	1344.744844	-299.386306	180.341592	1238.032333	874.743936
1563	15.62000	-7.549305	925.894432	279.286376	0.951007	1500.546124	301.415284	97.750458	1621.894487	251.192453	-30.676849	923.649409	209.961314	15.578240	928.139454	348.611431	107.450513	527.137103	88.270210	156.150801	514.382473	336.959610	50.450813	124.447481	42.250556	79.577468	112.057272	345.704287	17.179458	77.280620	49.057251	43.840769	64.208993	347.952589	221.098036	63.619916	-23.412388	261.133806	59.122786	321.699081	-100.078738	1495.385411	163.449609	12.286707	1437.743319	464.867825	-162.679693	1402.269649	-77.191259	67.243953	1294.888900	679.066281	-69.913748	1328.101026	-296.528759	177.941660	1220.057653	869.956871
1564	15.63000	-9.484857	925.782035	279.340016	0.985342	1499.837343	300.865856	99.116792	1620.108193	250.564719	-32.529745	923.550331	209.973899	13.560032	928.013738	348.706122	106.395348	527.159783	88.491879	155.237076	514.544213	337.216393	49.806643	124.385760	42.036456	79.175882	112.040377	345.624328	16.568352	77.144787	48.641672	43.476127	64.174094	347.788482	220.910948	63.955460	-22.975708	260.905385	59.033505	322.068784	-100.291293	1494.334644	162.260032	12.539462	1436.621923	464.731443	-166.008787	1393.305825	-75.292365	64.903576	1286.196479	674.879710	-75.322211	1311.457207	-293.671212	175.541727	1202.082974	865.169807
1565	15.64000	-11.420410	925.669638	279.393656	1.019677	1499.128561	300.316428	100.483127	1618.321899	249.936986	-34.382640	923.451252	209.986484	11.541824	927.888023	348.800812	105.340182	527.182462	88.713548	154.323351	514.705952	337.473176	49.162472	124.324040	41.822356	78.774296	112.023481	345.544369	15.957245	77.008954	48.226093	43.111486	64.139196	347.624374	220.723860	64.291003	-22.539028	260.676965	58.944224	322.438488	-100.503847	1493.283877	161.070456	12.792216	1435.500528	464.595061	-169.337882	1384.342001	-73.393472	62.563200	1277.504058	670.693139	-80.730674	1294.813389	-290.813665	173.141795	1184.108294	860.382742
1566	15.65000	-13.355962	925.557241	279.447296	1.054013	1498.419780	299.767000	101.849461	1616.535605	249.309253	-36.235536	923.352174	209.999070	9.523615	927.762307	348.895502	104.285017	527.205141	88.935217	153.409627	514.867691	337.729959	48.518302	124.262320	41.608256	78.372710	112.006585	345.464410	15.346139	76.873121	47.810513	42.746844	64.104298	347.460267	220.536772	64.626547	-22.102348	260.448544	58.854943	322.808191	-100.716401	1492.233110	159.880879	13.044971	1434.379133	464.458678	-172.666977	1375.378177	-71.494578	60.222823	1268.811637	666.506568	-86.139137	1278.169571	-287.956119	170.741863	1166.133614	855.595678
1567	15.66000	-15.291515	925.444844	279.500936	1.088348	1497.710999	299.217572	103.215795	1614.749311	248.681519	-38.088431	923.253095	210.011655	7.505407	927.636592	348.990192	103.229852	527.227821	89.156885	152.495902	515.029431	337.986742	47.874132	124.200599	41.394156	77.971124	111.989690	345.384450	14.735033	76.737288	47.394934	42.382203	64.069399	347.296160	220.349684	64.962090	-21.665668	260.220123	58.765662	323.177895	-100.928955	1491.182343	158.691303	13.297726	1433.257738	464.322296	-175.996071	1366.414352	-69.595685	57.882446	1260.119216	662.319996	-91.547599	1261.525753	-285.098572	168.341931	1148.158934	850.808613
1568	15.67000	-17.227067	925.332447	279.554576	1.122683	1497.002217	298.668144	104.582129	1612.963017	248.053786	-39.941327	923.154017	210.024240	5.487198	927.510876	349.084882	102.174687	527.250500	89.378554	151.582177	515.191170	338.243525	47.229962	124.138879	41.180056	77.569538	111.972794	345.304491	14.123927	76.601456	46.979355	42.017562	64.034501	347.132053	220.162596	65.297634	-21.228988	259.991702	58.676381	323.547598	-101.141509	1490.131576	157.501726	13.550481	1432.136343	464.185914	-179.325166	1357.450528	-67.696791	55.542069	1251.426795	658.133425	-96.956062	1244.881935	-282.241025	165.941999	1130.184254	846.021549
1569	15.68000	-17.843451	925.450076	279.988229	2.483341	1496.498599	298.579980	107.212313	1611.328336	247.946631	-40.470508	923.309035	210.403653	4.783610	927.591117	349.572775	101.997187	527.366986	89.823292	151.356672	515.314107	338.806495	47.587226	124.122148	41.163110	78.030278	111.859907	345.554737	14.511958	76.551218	46.866954	42.530329	63.889644	347.311468	220.720929	65.393023	-21.047920	260.601479	58.503730	324.023111	-99.491400	1489.293176	156.605664	15.010175	1431.343090	464.474247	-177.797944	1349.904535	-63.781183	55.735512	1245.351384	653.414057	-96.019952	1231.057433	-274.317135	166.614780	1118.786330	834.641054
1570	15.69000	-18.459836	925.567706	280.421882	3.843999	1495.994980	298.491817	109.842497	1609.693655	247.839477	-40.999689	923.464052	210.783066	4.080023	927.671359	350.060668	101.819687	527.483471	90.268030	151.131166	515.437043	339.369466	47.944491	124.105418	41.146165	78.491017	111.747019	345.804982	14.899988	76.500981	46.754553	43.043097	63.744787	347.490883	221.279263	65.488412	-20.866852	261.211256	58.331079	324.498623	-97.841291	1488.454776	155.709602	16.469870	1430.549837	464.762581	-176.270721	1342.358542	-59.865574	55.928954	1239.275974	648.694689	-95.083842	1217.232931	-266.393244	167.287561	1107.388406	823.260559
1571	15.70000	-19.076221	925.685336	280.855535	5.204657	1495.491362	298.403654	112.472681	1608.058974	247.732322	-41.528871	923.619070	211.162479	3.376435	927.751600	350.548561	101.642186	527.599957	90.712768	150.905661	515.559980	339.932436	48.301755	124.088687	41.129219	78.951756	111.634132	346.055228	15.288019	76.450744	46.642152	43.555864	63.599929	347.670298	221.837596	65.583801	-20.685783	261.821033	58.158429	324.974136	-96.191181	1487.616376	154.813540	17.929565	1429.756584	465.050914	-174.743499	1334.812549	-55.949966	56.122397	1233.200563	643.975321	-94.147731	1203.408430	-258.469353	167.960343	1095.990482	811.880065
